<svg width="754" height="297" viewBox="0 0 754 297" fill="none" xmlns="http://www.w3.org/2000/svg">
<g opacity="0.2">
<path d="M0 296.74V0.726685H33.988V296.74H0ZM15.7944 183.409V123.361H88.1689V183.409H15.7944ZM15.7944 64.1581V0.726685H96.3661V64.1581H15.7944Z" fill="#21BDDF"/>
<path d="M123.589 296.74V0.726685H157.577V233.309H219.955V296.74H123.589Z" fill="#21BDDF"/>
<path d="M257.594 296.74V149.156L258.993 169.877L202.413 0.726685H240.999L284.184 131.818L266.59 130.55L305.577 0.726685H342.964L288.783 174.529L291.782 145.773V296.74H257.594Z" fill="#21BDDF"/>
<path d="M359.248 296.74V0.726685H389.638L463.012 212.165L456.414 210.05C455.748 200.747 455.215 191.867 454.815 183.409C454.415 174.952 454.015 166.635 453.615 158.46C453.349 150.284 453.082 141.967 452.815 133.51C452.682 125.052 452.549 115.89 452.416 106.023C452.416 96.1557 452.416 85.4429 452.416 73.8843V0.726685H485.404V296.74H454.615L378.042 78.5359L388.238 81.4961C388.905 95.0281 389.438 106.587 389.838 116.172C390.371 125.475 390.771 133.792 391.037 141.122C391.437 148.451 391.704 155.077 391.837 160.997C391.97 166.917 392.037 172.837 392.037 178.758C392.17 184.396 392.237 190.739 392.237 197.787V296.74H359.248Z" fill="#21BDDF"/>
<path d="M520.52 296.74V0.726685H554.508V296.74H520.52ZM536.314 183.409V123.361H608.689V183.409H536.314ZM536.314 64.1581V0.726685H616.886V64.1581H536.314Z" fill="#21BDDF"/>
<path d="M677.427 296.74V64.1581H635.842V0.726685H754V64.1581H711.415V296.74H677.427Z" fill="#21BDDF"/>
</g>
</svg>
