<svg width="46" height="46" viewBox="0 0 46 46" fill="none" xmlns="http://www.w3.org/2000/svg">
<path d="M38 18.3334C38 10.8334 35 7.83337 27.5 7.83337H18.5C11 7.83337 8 10.8334 8 18.3334V27.3334C8 34.8334 11 37.8334 18.5 37.8334" stroke="#1E1E1E" stroke-width="1.5" stroke-linecap="round" stroke-linejoin="round"/>
<path d="M31.1562 15.3334C30.125 14.0209 28.4 13.4584 25.8125 13.4584H20.1875C15.5 13.4584 13.625 15.3334 13.625 20.0209V25.6459C13.625 28.2334 14.1875 29.9584 15.4812 30.9896M15.5187 7.83337V4.08337M23 7.83337V4.08337M30.5 7.83337V4.08337M38 15.3334H41.75M15.5187 37.8334V41.5834M4.25 15.3334H8M4.25 22.8334H8M4.25 30.3334H8" stroke="#1E1E1E" stroke-width="1.5" stroke-linecap="round" stroke-linejoin="round"/>
<path d="M31.8313 35.1897C32.2228 35.1897 32.6104 35.1126 32.9721 34.9627C33.3338 34.8129 33.6625 34.5933 33.9393 34.3165C34.2162 34.0397 34.4358 33.711 34.5856 33.3493C34.7354 32.9876 34.8125 32.5999 34.8125 32.2084C34.8125 31.8169 34.7354 31.4292 34.5856 31.0675C34.4358 30.7058 34.2162 30.3772 33.9393 30.1004C33.6625 29.8235 33.3338 29.6039 32.9721 29.4541C32.6104 29.3043 32.2228 29.2272 31.8313 29.2272C31.0406 29.2272 30.2823 29.5413 29.7232 30.1004C29.1641 30.6595 28.85 31.4177 28.85 32.2084C28.85 32.9991 29.1641 33.7574 29.7232 34.3165C30.2823 34.8756 31.0406 35.1897 31.8313 35.1897Z" stroke="#1E1E1E" stroke-width="1.5" stroke-miterlimit="10" stroke-linecap="round" stroke-linejoin="round"/>
<path d="M21.8937 33.0709V31.3271C21.8937 30.2959 22.7375 29.4521 23.7687 29.4521C25.5687 29.4521 26.3 28.1771 25.4 26.6209C25.276 26.4069 25.1956 26.1705 25.1634 25.9252C25.1312 25.68 25.1478 25.4309 25.2123 25.1921C25.2767 24.9533 25.3878 24.7297 25.5391 24.534C25.6904 24.3384 25.8789 24.1746 26.0937 24.0521L27.8 23.0584C28.5875 22.5896 29.6 22.8709 30.0687 23.6584L30.1812 23.8459C31.0812 25.4021 32.5437 25.4021 33.4437 23.8459L33.5562 23.6584C34.025 22.8709 35.0375 22.6084 35.825 23.0584L37.5312 24.0521C38.4312 24.5771 38.75 25.7209 38.225 26.6209C37.325 28.1771 38.0562 29.4521 39.8562 29.4521C40.8875 29.4521 41.7312 30.2959 41.7312 31.3271V33.0709C41.7312 34.1021 40.8875 34.9459 39.8562 34.9459C38.0562 34.9459 37.325 36.2209 38.225 37.7771C38.349 37.9911 38.4294 38.2275 38.4616 38.4727C38.4938 38.7179 38.4772 38.9671 38.4127 39.2059C38.3482 39.4446 38.2372 39.6683 38.0859 39.8639C37.9346 40.0596 37.7461 40.2234 37.5312 40.3459L35.825 41.3396C35.0375 41.8084 34.025 41.5271 33.5562 40.7396L33.4437 40.5521C32.5437 38.9959 31.0812 38.9959 30.1812 40.5521L30.0687 40.7396C29.6 41.5271 28.5875 41.7896 27.8 41.3396L26.0937 40.3459C25.1937 39.8209 24.875 38.6771 25.4 37.7771C26.3 36.2209 25.5687 34.9459 23.7687 34.9459C23.5218 34.9484 23.2769 34.9016 23.0483 34.8082C22.8196 34.7149 22.6119 34.5769 22.4373 34.4023C22.2627 34.2277 22.1247 34.02 22.0314 33.7914C21.938 33.5627 21.8912 33.3178 21.8937 33.0709Z" stroke="#1E1E1E" stroke-width="1.5" stroke-miterlimit="10" stroke-linecap="round" stroke-linejoin="round"/>
<rect x="1" y="0.833374" width="44" height="44" rx="6.5" stroke="#B95959"/>
</svg>
