<svg width="46" height="46" viewBox="0 0 46 46" fill="none" xmlns="http://www.w3.org/2000/svg">
<path d="M18.3125 26.448C18.3125 28.2667 19.7188 29.7292 21.4438 29.7292H24.9688C26.4688 29.7292 27.6875 28.4542 27.6875 26.8605C27.6875 25.1542 26.9375 24.5355 25.8313 24.1417L20.1875 22.173C19.0813 21.7792 18.3313 21.1792 18.3313 19.4542C18.3313 17.8792 19.55 16.5855 21.05 16.5855H24.575C26.3 16.5855 27.7063 18.048 27.7063 19.8667M23 14.7292V31.6042" stroke="#1E1E1E" stroke-width="1.5" stroke-linecap="round" stroke-linejoin="round"/>
<path d="M41.75 23.1667C41.75 33.5167 33.35 41.9167 23 41.9167C12.65 41.9167 4.25 33.5167 4.25 23.1667C4.25 12.8167 12.65 4.41675 23 4.41675M41.75 11.9167V4.41675H34.25M32.375 13.7917L41.75 4.41675" stroke="#1E1E1E" stroke-width="1.5" stroke-linecap="round" stroke-linejoin="round"/>
<rect x="1" y="1.16675" width="44" height="44" rx="6.5" stroke="#B95959"/>
</svg>
