<svg width="46" height="45" viewBox="0 0 46 45" fill="none" xmlns="http://www.w3.org/2000/svg">
<path d="M18.3125 25.7812C18.3125 27.6 19.7188 29.0625 21.4438 29.0625H24.9688C26.4688 29.0625 27.6875 27.7875 27.6875 26.1938C27.6875 24.4875 26.9375 23.8688 25.8313 23.475L20.1875 21.5063C19.0813 21.1125 18.3313 20.5125 18.3313 18.7875C18.3313 17.2125 19.55 15.9187 21.05 15.9187H24.575C26.3 15.9187 27.7063 17.3812 27.7063 19.2M23 14.0625V30.9375" stroke="#1E1E1E" stroke-width="1.5" stroke-linecap="round" stroke-linejoin="round"/>
<path d="M41.75 22.5C41.75 32.85 33.35 41.25 23 41.25C12.65 41.25 4.25 32.85 4.25 22.5C4.25 12.15 12.65 3.75 23 3.75" stroke="#1E1E1E" stroke-width="1.5" stroke-linecap="round" stroke-linejoin="round"/>
<path d="M32.375 5.625V13.125H39.875M41.75 3.75L32.375 13.125" stroke="#1E1E1E" stroke-width="1.5" stroke-linecap="round" stroke-linejoin="round"/>
<rect x="1" y="0.5" width="44" height="44" rx="6.5" stroke="#B95959"/>
</svg>
